<?xml version="1.0" encoding="utf-8"?>
<!-- Generator: Adobe Illustrator 24.2.1, SVG Export Plug-In . SVG Version: 6.00 Build 0)  -->
<svg version="1.1" id="SvgjsSvg1264" xmlns:svgjs="http://svgjs.com/svgjs"
	 xmlns="http://www.w3.org/2000/svg" xmlns:xlink="http://www.w3.org/1999/xlink" x="0px" y="0px" viewBox="0 0 288 288"
	 style="enable-background:new 0 0 288 288;" xml:space="preserve">
<style type="text/css">
	.st0{fill:#FFFFFF;}
</style>
<g id="SvgjsG1266">
	<path class="st0" d="M243.9,194.5c-17.3-7.3-28.4-24.3-28.4-43c0.2-16.6,8.9-31.9,23.1-40.5c2.8-1.7,3.7-5.4,2-8.2
		c0-0.1-0.1-0.2-0.2-0.2c-11-15.9-28.9-25.7-48.2-26.4c-2.1-0.2-4.1-0.3-6.2-0.2c12.3-14.6,18.3-33.5,16.8-52.5
		c-0.2-3.2-3-5.6-6.2-5.4c-34.4,3.2-62.1,29.7-66.6,64c-7.6-3.4-15.8-5.2-24.1-5.4c-22.8,0.7-43.6,13.2-54.8,33.1
		c-21.4,37.2-8,93.4,15.5,127.3c9.1,13.2,22.8,33,42,33c0.4,0,0.7,0,1.1,0c6.7-0.4,13.3-2.1,19.4-5.1c6.1-3,12.9-4.7,19.7-4.7
		c6.5,0.1,12.9,1.6,18.7,4.5c6.6,3.2,13.8,4.9,21.1,5c19.9-0.4,31.9-18,41.6-32.1c7.5-11,13.3-23,17.4-35.7
		C248.3,198.9,246.8,195.7,243.9,194.5z M156.6,50.9c9.1-10.2,21.1-17.3,34.5-20.2c-0.5,13.9-5.7,27.3-14.7,37.9
		c-4.7,5.7-10.5,10.4-17,13.9l-0.2,0.1l-1.4,0.6c-3.9,1.8-7.9,3.1-12.2,3.8c-1.3-0.1-2.7-0.3-3.9-0.7
		C142.7,73.3,148,60.8,156.6,50.9z M220.1,230.8c-10.7,15.6-19.2,26.6-31.9,26.9c-5.6-0.1-11.1-1.5-16.1-4
		c-7.3-3.6-15.3-5.5-23.4-5.5c-8.5,0.1-16.8,2-24.4,5.7c-4.7,2.4-9.9,3.8-15.2,4.1c-0.2,0-0.4,0-0.6,0c-11.9,0-22-13.1-32.1-27.8
		c-18.3-26.5-35.1-79.5-14.9-114.5c9.1-16.2,26-26.5,44.6-27.1h0.5c7.6,0.6,15,2.5,21.9,5.7c1.6,0.6,3.1,1.2,4.7,1.8
		c0.3,0.1,0.6,0.2,0.9,0.3c3.7,1.5,7.5,2.4,11.5,2.5c5.7-0.6,11.4-2.1,16.6-4.6c9.1-4.4,19.1-6.6,29.1-6.4
		c13.6,0.5,26.4,6.4,35.6,16.5c-14.7,11.2-23.4,28.6-23.4,47c-0.1,21.6,11.8,41.4,30.8,51.6C230.8,212.9,226,222.2,220.1,230.8z"/>
</g>
</svg>
