<?xml version="1.0" encoding="utf-8"?>
<!-- Generator: Adobe Illustrator 24.2.1, SVG Export Plug-In . SVG Version: 6.00 Build 0)  -->
<svg version="1.1" id="SvgjsSvg1116" xmlns:svgjs="http://svgjs.com/svgjs"
	 xmlns="http://www.w3.org/2000/svg" xmlns:xlink="http://www.w3.org/1999/xlink" x="0px" y="0px" viewBox="0 0 75 126.4"
	 style="enable-background:new 0 0 75 126.4;" xml:space="preserve">
<g id="SvgjsG1118">
	<path d="M46,63.5L3.5,106c-4.7,4.7-4.7,12.2,0,16.9c4.7,4.7,12.3,4.7,17,0.1c0,0,0,0,0.1-0.1L71.4,72c4.7-4.7,4.7-12.3,0.1-17
		c0,0,0,0-0.1-0.1L20.5,3.5C18.3,1.2,15.2,0,12,0C8.8,0,5.8,1.2,3.5,3.5c-4.7,4.7-4.7,12.2,0,16.9L46,63.5z"/>
</g>
</svg>
