<?xml version="1.0" encoding="utf-8"?>
<!-- Generator: Adobe Illustrator 24.2.1, SVG Export Plug-In . SVG Version: 6.00 Build 0)  -->
<svg version="1.1" id="Layer_1" xmlns="http://www.w3.org/2000/svg" xmlns:xlink="http://www.w3.org/1999/xlink" x="0px" y="0px"
	 viewBox="0 0 20 14" style="enable-background:new 0 0 20 14;" xml:space="preserve">
<style type="text/css">
	.st0{fill:#FF0000;}
</style>
<path class="st0" d="M3.4,13.6L3.4,13.6c-0.5-0.5-0.5-1.3,0-1.8L14.9,0.4c0.5-0.5,1.3-0.5,1.8,0l0,0c0.5,0.5,0.5,1.3,0,1.8L5.1,13.6
	C4.6,14.1,3.8,14.1,3.4,13.6z"/>
<path class="st0" d="M16.6,13.6L16.6,13.6c0.5-0.5,0.5-1.3,0-1.8L5.1,0.4c-0.5-0.5-1.3-0.5-1.8,0l0,0c-0.5,0.5-0.5,1.3,0,1.8
	l11.5,11.5C15.4,14.1,16.2,14.1,16.6,13.6z"/>
</svg>
