<?xml version="1.0" encoding="utf-8"?>
<!-- Generator: Adobe Illustrator 24.2.1, SVG Export Plug-In . SVG Version: 6.00 Build 0)  -->
<svg version="1.1" id="Layer_1" xmlns="http://www.w3.org/2000/svg" xmlns:xlink="http://www.w3.org/1999/xlink" x="0px" y="0px"
	 viewBox="0 0 35 35" style="enable-background:new 0 0 35 35;" xml:space="preserve">
<style type="text/css">
	.st0{fill:#FFFFFF;}
</style>
<path class="st0" d="M2.6,20l-2-8.2c-0.1-0.4-0.1-0.8-0.1-1.2c0-2.8,2.3-5.1,5.1-5.1h16.5c0.4,0,0.8,0,1.2,0.1
	c2.7,0.7,4.4,3.4,3.8,6.2l-2,8.1c-0.5,2.3-2.6,3.9-4.9,3.9H7.6C5.2,24,3.1,22.3,2.6,20z M5.6,8.1C5.4,8,5.2,8.1,5,8.1
	c-1.4,0.3-2.3,1.8-1.9,3.2l2,8.1c0.3,1.2,1.3,2,2.5,2h12.5c1.2,0,2.3-0.8,2.5-2l2-8.1c0-0.2,0.1-0.4,0.1-0.6c0-1.4-1.2-2.6-2.6-2.6
	L5.6,8.1z"/>
<path class="st0" d="M25.3,13.9C25.3,13.9,25.3,13.9,25.3,13.9c-0.7-0.2-1.1-0.8-0.9-1.5l1.8-7.8c0.6-2.6,2.9-4.4,5.6-4.4h1.6
	c0.7,0,1.3,0.6,1.3,1.3s-0.6,1.3-1.3,1.3h-1.6c-1.5,0-2.8,1-3.1,2.5L26.8,13c-0.1,0.6-0.6,1-1.2,1C25.5,14,25.4,14,25.3,13.9z
	 M20,34.8c-2.2,0-4-1.8-4-4s1.8-4,4-4s4,1.8,4,4C24,33,22.2,34.8,20,34.8L20,34.8z M18.5,30.7L18.5,30.7c0,0.8,0.7,1.5,1.5,1.5
	c0.8,0,1.5-0.7,1.5-1.5c0-0.8-0.7-1.5-1.5-1.5C19.1,29.2,18.5,29.9,18.5,30.7z M2.2,30.8c0-2.2,1.8-4,4-4s4,1.8,4,4s-1.8,4-4,4
	S2.2,33,2.2,30.8z M6.1,29.2c-0.8,0-1.5,0.7-1.5,1.5c0,0.8,0.7,1.5,1.5,1.5c0.8,0,1.5-0.7,1.5-1.5C7.7,29.9,7,29.2,6.1,29.2
	C6.2,29.2,6.1,29.2,6.1,29.2z"/>
<path class="st0" d="M4.9,28c0-0.7,0.6-1.3,1.3-1.3h16.7l0,0c0.8,0,1.4-0.6,1.4-1.4c0-0.8-0.6-1.4-1.4-1.4h-2.6
	c-0.7,0-1.3-0.6-1.3-1.3s0.6-1.3,1.3-1.3h2.6c2.1,0,3.9,1.7,3.9,3.9s-1.7,3.9-3.9,3.9H6.2C5.5,29.2,4.9,28.7,4.9,28z"/>
</svg>
