<?xml version="1.0" encoding="utf-8"?>
<!-- Generator: Adobe Illustrator 24.2.1, SVG Export Plug-In . SVG Version: 6.00 Build 0)  -->
<svg version="1.1" id="SvgjsSvg1245" xmlns:svgjs="http://svgjs.com/svgjs"
	 xmlns="http://www.w3.org/2000/svg" xmlns:xlink="http://www.w3.org/1999/xlink" x="0px" y="0px" viewBox="0 0 288 288"
	 style="enable-background:new 0 0 288 288;" xml:space="preserve">
<style type="text/css">
	.st0{fill:#0167F3;}
</style>
<g id="SvgjsG1247">
	<rect x="33" y="173.5" class="st0" width="41.9" height="9"/>
	<rect x="33" y="198.3" class="st0" width="31.7" height="9"/>
	<path class="st0" d="M259.2,150.1h-33.7V69.4l0,0c0-0.7-0.1-1.3-0.4-1.9l-19.9-41.8c-0.7-1.6-2.3-2.6-4.1-2.6H34.1
		c-1.7,0-3.3,1-4.1,2.6L10.1,67.5c-0.3,0.6-0.4,1.3-0.4,1.9h0v164.5c0,2.5,2,4.5,4.5,4.5h158.8v31.4c0,2.5,2,4.5,4.5,4.5h81.8
		c12.4,0,22.4-10.1,22.5-22.5v-79.4C281.6,160.1,271.6,150.1,259.2,150.1z M213.8,64.9h-66.3V32.1h50.7L213.8,64.9z M138.5,32.1
		v32.8H96.6V32.1H138.5z M96.6,73.9h41.8v57.9H96.6V73.9z M36.9,32.1h50.7v32.8H21.3L36.9,32.1z M18.7,73.9h69v62.4
		c0,2.5,2,4.5,4.5,4.5H143c2.5,0,4.5-2,4.5-4.5V73.9h69v76.2h-19.8v-13.1c0-2.5-2-4.5-4.5-4.5c-0.9,0-1.7,0.3-2.5,0.7l-55.4,36.2
		c-2.1,1.4-2.7,4.2-1.3,6.2c0.3,0.5,0.8,1,1.3,1.3l55.4,36.2c2.1,1.4,4.9,0.8,6.2-1.3c0.5-0.7,0.7-1.6,0.7-2.5V195h40.1v34.5H18.7
		V73.9z M272.7,251.9c0,7.4-6,13.4-13.5,13.5h-77.3v-26.9h59.3c2.5,0,4.5-2,4.5-4.5v-43.5c0-2.5-2-4.5-4.5-4.5h-49.1
		c-2.5,0-4.5,2-4.5,4.5v10.6L145,173.2l42.7-27.9v9.3c0,2.5,2,4.5,4.5,4.5h67c7.4,0,13.4,6,13.5,13.5L272.7,251.9z"/>
</g>
</svg>
