<?xml version="1.0" encoding="utf-8"?>
<!-- Generator: Adobe Illustrator 24.2.1, SVG Export Plug-In . SVG Version: 6.00 Build 0)  -->
<svg version="1.1" id="SvgjsSvg1172" xmlns:svgjs="http://svgjs.com/svgjs"
	 xmlns="http://www.w3.org/2000/svg" xmlns:xlink="http://www.w3.org/1999/xlink" x="0px" y="0px" viewBox="0 0 288 288"
	 style="enable-background:new 0 0 288 288;" xml:space="preserve">
<style type="text/css">
	.st0{fill:#0167F3;}
</style>
<g id="SvgjsG1174">
	<path class="st0" d="M265.7,124.5l-33.2-30.8c-7.3-6.7-16.8-10.5-26.7-10.5h-17v-3.4c0-15.5-12.6-28.1-28.1-28.1H37.8
		c-15.5,0-28.1,12.6-28.1,28.1v125.9c0,3.1,2.5,5.6,5.6,5.6h17.6c2.7,16.3,18.2,27.2,34.4,24.5c12.6-2.1,22.4-12,24.5-24.5h104.7
		c2.7,16.3,18.2,27.2,34.4,24.5c12.6-2.1,22.4-12,24.5-24.5h17.2c3.1,0,5.6-2.5,5.6-5.6v-52.4C278.3,142.4,273.7,131.9,265.7,124.5z
		 M258,132.8h-33.3v-30.8l0.1,0.1L258,132.8z M37.8,62.9h122.8c9.3,0,16.8,7.6,16.9,16.9v20.3l0,0v44.1l0,0v0.8H20.9V79.8
		C21,70.5,28.5,63,37.8,62.9z M62.3,225.1c-10.3,0-18.6-8.3-18.6-18.6c0-10.3,8.3-18.6,18.6-18.6s18.6,8.3,18.6,18.6
		C80.9,216.7,72.6,225,62.3,225.1z M62.3,176.5c-14.1,0-26.3,9.9-29.3,23.6H20.9v-43.9h156.5v43.9H91.6
		C88.6,186.4,76.4,176.5,62.3,176.5z M226,225.1c-10.3,0-18.6-8.3-18.6-18.6c0-10.3,8.3-18.6,18.6-18.6c10.3,0,18.6,8.3,18.6,18.6
		l0,0C244.6,216.7,236.3,225,226,225.1L226,225.1z M267.1,200.1h-11.8c-3.5-16.2-19.4-26.4-35.5-23c-11.5,2.5-20.5,11.5-23,23h-8
		v-55.9l0,0V94.5h17c2.6,0,5.2,0.4,7.8,1.1v37.2c0,6.2,5,11.2,11.3,11.3h40.7c1.1,3,1.6,6.2,1.6,9.4V200.1z"/>
	<path class="st0" d="M62.3,190.4c-8.8,0-16,7.2-16,16c0,8.8,7.2,16,16,16s16-7.2,16-16l0,0C78.3,197.6,71.1,190.4,62.3,190.4z
		 M62.3,211.2c-2.6,0-4.7-2.1-4.7-4.7c0-2.6,2.1-4.7,4.7-4.7c2.6,0,4.7,2.1,4.7,4.7l0,0C67,209,64.9,211.1,62.3,211.2z M226,190.4
		c-8.8,0-16,7.2-16,16c0,8.8,7.2,16,16,16c8.8,0,16-7.2,16-16l0,0C242,197.6,234.8,190.4,226,190.4z M226,211.2
		c-2.6,0-4.7-2.1-4.7-4.7s2.1-4.7,4.7-4.7s4.7,2.1,4.7,4.7l0,0C230.7,209,228.6,211.1,226,211.2z M87.4,119.5c1.1,1.1,2.5,1.7,4,1.7
		l0,0c1.5,0,2.9-0.6,4-1.6l27.1-27.1c2.2-2.2,2.2-5.7,0-7.9c-2.2-2.2-5.7-2.2-7.9,0l-23.1,23.1L80.2,96.2C78,94,74.5,94,72.3,96.1
		c-2.2,2.2-2.2,5.7-0.1,7.9L87.4,119.5z"/>
</g>
</svg>
