<?xml version="1.0" encoding="utf-8"?>
<!-- Generator: Adobe Illustrator 24.2.1, SVG Export Plug-In . SVG Version: 6.00 Build 0)  -->
<svg version="1.1" id="Layer_1" xmlns="http://www.w3.org/2000/svg" xmlns:xlink="http://www.w3.org/1999/xlink" x="0px" y="0px"
	 viewBox="0 0 80.3 41" style="enable-background:new 0 0 80.3 41;" xml:space="preserve">
<style type="text/css">
	.st0{fill:#FFFFFF;}
	.st1{fill:#0167F3;stroke:#0167F3;stroke-miterlimit:10;}
	.st2{fill:#FFFFFF;stroke:#FFFFFF;stroke-miterlimit:10;}
</style>
<g>
	<g id="XMLID_1_">
		<g>
			<path class="st0" d="M79.8,14.2c0-0.1,0-0.3,0-0.4c0-0.1,0-0.2-0.1-0.3c-0.4-1.6-1.6-2.6-3-2.6c-1.2,0-2,0.5-2.5,1.4l0-0.2
				l-0.1-1h-1.2c0.1,0.7,0.1,1.4,0.1,2.3v7.9h1.3v-3.9c0.4,0.7,1.2,1.1,2.2,1.1c1.6,0,3.1-1.2,3.3-3.5c0-0.1,0-0.3,0-0.5
				C79.8,14.4,79.8,14.3,79.8,14.2z M74.3,14c0-0.1,0.1-0.3,0.1-0.5c0.3-1,1.1-1.6,2-1.6c1.1,0,1.9,0.9,2.1,2.1c0,0.2,0,0.3,0,0.5
				v0.1c0,1.4-0.5,2.4-1.5,2.6c0,0,0,0,0,0c-0.2,0-0.4,0-0.6,0c-1,0-1.8-0.6-2-1.5c-0.1-0.1-0.1-0.2-0.1-0.4V14z"/>
			<path class="st0" d="M67.8,10.9c-2,0-3.6,1.4-3.6,3.8c0,2.3,1.5,3.7,3.5,3.7c1.7,0,3.6-1.1,3.6-3.8
				C71.3,12.4,69.9,10.9,67.8,10.9z M69.9,14.7c0,0.1,0,0.1,0,0.2c-0.1,1.5-1,2.5-2.2,2.5c-1.2,0-2.1-1.1-2.2-2.5c0-0.1,0-0.1,0-0.2
				c0-0.1,0-0.2,0-0.3c0-0.1,0-0.2,0-0.2c0-0.1,0-0.2,0-0.2c0.2-1.2,0.8-2.2,2.1-2.2c1.4,0,2.1,1.3,2.2,2.4
				C69.9,14.3,69.9,14.5,69.9,14.7L69.9,14.7z"/>
			<path class="st0" d="M62.6,14v4.3h-1.3v-4.2c0-1.2-0.4-2.1-1.7-2.1c-0.9,0-1.5,0.6-1.8,1.3c-0.1,0.2-0.1,0.4-0.1,0.6v4.4h-1.3
				V7.6h1.3v4.5l0,0c0.2-0.4,0.5-0.7,0.9-0.9s0.9-0.4,1.3-0.4C61,10.9,62.6,11.5,62.6,14z"/>
			<path class="st0" d="M54.5,11.3l-0.3,1c-0.3-0.2-0.8-0.4-1.5-0.4c-0.8,0-1.2,0.4-1.2,1s0.4,0.9,1.4,1.2c1.3,0.5,1.9,1.1,1.9,2.2
				c0,1.3-1,2.2-2.7,2.2c-0.8,0-1.5-0.2-2-0.5l0.3-1c0.4,0.2,1.1,0.5,1.7,0.5c1,0,1.4-0.5,1.4-1.1s-0.4-1-1.3-1.3
				c-1.3-0.5-1.9-1.2-1.9-2c0-1.2,0.9-2.1,2.5-2.1C53.5,10.9,54.1,11.1,54.5,11.3z"/>
			<polygon class="st0" points="49,13.7 49,14.7 47.2,14.7 47.3,13.7 			"/>
			<path class="st0" d="M43.2,1.2c-2,0.4-3.9,0.8-5.8,1.2c-3.4,0.8-6.7,1.5-10,2.2c-0.8,0.1-1.6,0.3-2.5,0.5c-2.7,0.5-5.4,1-8.1,1.7
				c-1.8,0.4-3.7,0.5-5.4,1.5c-0.4,0.3-0.5-0.2-0.6-0.4C10.1,6.4,9.3,5,8.6,3.7c-0.2-0.4-0.5-0.8-0.8-1C5.9,1.9,4,1,2.2,0.2
				c-1-0.4-1.8,0-2.1,0.8s0,1.6,1,2c1.4,0.7,2.7,1.2,4.2,2.2c0.5,0.3,1,0.7,1.2,1.2c0.9,1.7,1.9,3.5,2.8,5.3
				c0.3,0.6,0.5,0.8,1.2,0.6c1-0.3,2.1-0.5,3.2-0.7c1.2-0.3,2,0.3,2.2,1.4s-0.4,1.9-1.5,2.1c-2.2,0.4-4.3,0.9-6.5,1.3
				c-1.8,0.2-2.4,1-2.2,2.2c0.2,1.2,1.1,1.5,2.8,1.2c5-1.1,10-2.2,15.1-3.2c1.1-0.3,2,0.2,2.2,1.2c0.3,1-0.2,1.9-1.3,2.1
				c-1.5,0.3-2.8,0.7-4.2,0.9c-2.3,0.4-4.6,0.9-6.9,1.4c-1.3,0.3-1.7,1-1.5,2.2c0.1,1,1,1.5,2.2,1.3c0.8-0.1,1.8-0.7,2.5-0.3
				c0.7,0.4,1,1.5,1.4,2.2c1.5,2.7,4.1,4,7.1,3.3c2.1-0.4,4.2-0.9,6.3-1.4c0,0,0.1-0.1,0.2-0.1c0.2,0.1,0.4,0.1,0.6,0L32.1,29
				C32,29,32,28.9,32,28.9c-0.1,0-0.1,0-0.1,0c0.1,0,0.1-0.1,0.2-0.1l0-0.1l-0.5-2.2h-0.1c-0.2,0-0.4,0-0.5,0.1
				c-2.2,0.5-4.4,0.9-6.6,1.4c-1.4,0.3-2.7-0.2-3.1-1.1c3.5-0.6,7.1-1.4,10.6-2.3c3.4-0.6,6.8-1.4,10.2-2.1c2.1-0.4,3.8-1.8,4.5-3.6
				l0.6-4.2h-1.9v-1h2l0.4-2.6c0.2-1.8,0.3-3.6,0.5-5.4C48.5,2.4,46.4,0.5,43.2,1.2z M22.2,12.9c-0.8,0.2-1.5,0.3-2.1,0.5
				c-1.2,0.2-2-0.6-2.1-1.8c-0.1-0.9,0.4-1.4,1.2-1.6c0.7-0.3,1.5-0.4,2.2-0.5c0.9-0.2,1.8,0.4,2,1.3C23.6,11.8,23.1,12.7,22.2,12.9
				z M44.3,18.3h-5.7V8.2H44v1.1h-4.1v3.2h3.9v1.1h-3.9v3.6h4.4V18.3z"/>
			<polygon class="st0" points="47.3,13.7 47.2,14.7 45.3,14.7 45.3,13.7 			"/>
			<path class="st0" d="M46.1,26.8c0.4,2.1-0.8,3.9-3,4.4c-0.6,0.1-1.2,0.2-2,0.4c2.2,1.7,2.7,3.3,1.6,4.9c-0.9,1.3-2.7,1.7-4.1,0.9
				c-1.7-1-1.8-2.6-0.6-5.2c-2.7,0.5-5.2,1.2-7.8,1.6c-0.1,0-0.2,0.1-0.3,0.1c-0.2-0.3-0.3-0.2-0.4,0.1c-0.7,0.2-1.2,0.3-1.9,0.5
				c-0.2,0.1-0.4,0.1-0.5,0.3c0,0.3,0.2,0.4,0.4,0.5c1.5,1.2,1.7,3.2,0.6,4.6c-0.8,1-2,1.3-3.2,1s-2-1.2-2.2-2.4
				c-0.5-3.9,1.3-6.6,5.1-7.1c0.2-0.1,0.6-0.2,0.9-0.2c0.2,0.2,0.3,0.2,0.4,0.1c0.1,0,0.2-0.1,0.2-0.3h-0.1l0,0
				c4.2-0.9,8.3-1.8,12.5-2.7c0.2,0,0.3-0.1,0.5-0.1c0.4-0.1,0.7-0.2,0.7-0.7c-0.1-0.6-0.5-0.5-0.9-0.4c-0.9,0.2-1.9,0.4-2.9,0.6
				c-2.1,0.5-4.2,0.9-6.4,1.3c-0.2,0.1-0.3,0.2-0.5,0.2l-0.1-0.4l0.1-0.1c-0.1,0-0.2-0.1-0.2-0.1l-0.5-2.3c3.4-0.8,6.7-1.5,10.1-2.2
				C43.8,23.7,45.8,24.9,46.1,26.8z"/>
			<polygon class="st0" points="44.3,17.2 44.3,18.3 38.6,18.3 38.6,8.2 44.1,8.2 44.1,9.3 39.9,9.3 39.9,12.5 43.8,12.5 43.8,13.5 
				39.9,13.5 39.9,17.2 			"/>
			<path class="st0" d="M32.4,28.7C32.3,28.7,32.3,28.7,32.4,28.7L32.4,28.7L32.4,28.7c-0.1,0.1-0.2,0.1-0.2,0c0,0,0,0-0.1,0
				c0.1,0,0.1-0.1,0.2-0.1C32.2,28.6,32.3,28.7,32.4,28.7z"/>
			<path class="st0" d="M29.5,34c0.1-0.3,0.2-0.4,0.4-0.1C29.9,34,29.7,34,29.5,34z"/>
			<path class="st0" d="M29.5,31.1L29.5,31.1c0.1,0.2,0,0.3-0.1,0.3C29.4,31.3,29.4,31.2,29.5,31.1z"/>
			<path class="st0" d="M29.5,31.1c0,0.2-0.1,0.2-0.1,0.3c-0.1,0-0.2,0-0.4-0.1C29.2,31.1,29.3,31.1,29.5,31.1z"/>
			<path class="st0" d="M10,24.6c0.2,0.8-0.2,1.7-1,1.9c-1.4,0.4-2.9,0.7-4.3,0.9c-0.9,0.2-1.6-0.5-1.7-1.3c-0.2-0.9,0.2-1.7,0.9-2
				c1.5-0.4,3-0.7,4.1-0.9C9.2,23.2,9.9,23.7,10,24.6z"/>
		</g>
		<g>
			<polygon class="st1" points="44.3,18.3 38.6,18.3 38.6,8.2 44.1,8.2 44.1,9.3 39.9,9.3 39.9,12.5 43.8,12.5 43.8,13.5 39.9,13.5 
				39.9,17.2 44.3,17.2 			"/>
			<polygon class="st2" points="47.3,13.7 49,13.7 49,14.7 47.2,14.7 45.3,14.7 45.3,13.7 			"/>
			<path class="st2" d="M50.3,16.9c0.4,0.2,1.1,0.5,1.7,0.5c1,0,1.4-0.5,1.4-1.1s-0.4-1-1.3-1.3c-1.3-0.5-1.9-1.2-1.9-2
				c0-1.2,0.9-2.1,2.5-2.1c0.7,0,1.4,0.2,1.8,0.4l-0.3,1c-0.3-0.2-0.8-0.4-1.5-0.4c-0.8,0-1.2,0.4-1.2,1s0.4,0.9,1.4,1.2
				c1.3,0.5,1.9,1.1,1.9,2.2c0,1.3-1,2.2-2.7,2.2c-0.8,0-1.5-0.2-2-0.5L50.3,16.9z"/>
			<path class="st2" d="M56.4,7.6h1.3v4.5l0,0c0.2-0.4,0.5-0.7,0.9-0.9s0.9-0.4,1.3-0.4c1,0,2.5,0.6,2.5,3.1v4.3h-1.3V14
				c0-1.2-0.4-2.1-1.7-2.1c-0.9,0-1.5,0.6-1.8,1.3c-0.1,0.2-0.1,0.4-0.1,0.6v4.4h-1.1V7.6z"/>
			<path class="st2" d="M67.8,10.9c-2,0-3.6,1.4-3.6,3.8c0,2.3,1.5,3.7,3.5,3.7c1.7,0,3.6-1.1,3.6-3.8
				C71.3,12.4,69.9,10.9,67.8,10.9z M69.9,14.7c0,0.1,0,0.1,0,0.2c-0.1,1.5-1,2.5-2.2,2.5c-1.2,0-2.1-1.1-2.2-2.5c0-0.1,0-0.1,0-0.2
				c0-0.1,0-0.2,0-0.3c0-0.1,0-0.2,0-0.2c0-0.1,0-0.2,0-0.2c0,0,0,0,0,0c0-0.1,0-0.3,0.1-0.4c0-0.1,0-0.1,0.1-0.2
				c0.1-0.3,0.2-0.5,0.4-0.7c0,0,0.1-0.1,0.1-0.1c0.1-0.2,0.3-0.3,0.5-0.4c0.1,0,0.1-0.1,0.2-0.1c0.2-0.1,0.5-0.1,0.8-0.1
				c0.1,0,0.2,0,0.3,0c0.1,0,0.2,0,0.3,0c0.1,0,0.2,0.1,0.3,0.1c0.1,0,0.1,0.1,0.2,0.1c0.2,0.1,0.4,0.3,0.5,0.5
				c0.1,0.1,0.1,0.2,0.2,0.3c0,0.1,0.1,0.1,0.1,0.2c0,0.1,0.1,0.2,0.1,0.2c0,0,0,0,0,0.1c0,0.1,0.1,0.2,0.1,0.3
				c0,0.1,0.1,0.3,0.1,0.4C69.9,14.3,69.9,14.5,69.9,14.7L69.9,14.7z"/>
			<path class="st2" d="M69.9,14.9c-0.1,1.5-1,2.6-2.2,2.6c-1.3,0-2.1-1.1-2.2-2.6c0.1,1.4,1,2.5,2.2,2.5
				C68.9,17.4,69.8,16.4,69.9,14.9z"/>
			<path class="st2" d="M79.8,14.2c0-0.1,0-0.3,0-0.4c0-0.1,0-0.2-0.1-0.3c-0.3-1.7-1.6-2.7-3-2.7c-1.1,0-2,0.5-2.5,1.3
				c0,0-0.1,0.1-0.1,0.1L74,11.1l0-0.1h-1.2c0.1,0.7,0.1,1.5,0.1,2.4H73v7.8h1.3v-3.9c0.4,0.7,1.2,1.1,2.2,1.1
				c1.6,0,3.1-1.1,3.3-3.4c0-0.1,0-0.3,0-0.5C79.8,14.4,79.8,14.3,79.8,14.2z M78.5,14.6c0,1.3-0.5,2.3-1.5,2.6c0,0,0,0,0,0
				c-0.2,0-0.4,0-0.6,0c-1,0-1.8-0.6-2-1.5c-0.1-0.1-0.1-0.2-0.1-0.4V14c0-0.1,0.1-0.3,0.1-0.5c0.3-1,1.1-1.6,2-1.6
				c1.1,0,1.9,0.9,2.1,2.1C78.5,14.1,78.5,14.3,78.5,14.6L78.5,14.6z"/>
			<path class="st2" d="M77,17.1c-0.2,0.1-0.5,0.1-0.7,0.1c-1,0-1.8-0.6-2-1.5c-0.1-0.1-0.1-0.3-0.1-0.5h0.1c0,0.2,0,0.3,0.1,0.4
				c0.2,0.9,1,1.5,2,1.5C76.6,17.2,76.8,17.2,77,17.1z"/>
			<path class="st2" d="M78.5,14c-0.2-1.2-0.9-2.1-2.1-2.1c-0.9,0-1.7,0.6-2,1.6c0,0.2-0.1,0.4-0.1,0.5v-0.1c0-0.1,0.1-0.3,0.1-0.5
				c0.3-1,1.1-1.6,2-1.6C77.6,11.8,78.3,12.7,78.5,14z"/>
		</g>
	</g>
</g>
</svg>
