<?xml version="1.0" encoding="utf-8"?>
<!-- Generator: Adobe Illustrator 24.2.1, SVG Export Plug-In . SVG Version: 6.00 Build 0)  -->
<svg version="1.1" id="SvgjsSvg1264" xmlns:svgjs="http://svgjs.com/svgjs"
	 xmlns="http://www.w3.org/2000/svg" xmlns:xlink="http://www.w3.org/1999/xlink" x="0px" y="0px" viewBox="0 0 288 288"
	 style="enable-background:new 0 0 288 288;" xml:space="preserve">
<style type="text/css">
	.st0{fill:#FFFFFF;}
</style>
<g>
	<path class="st0" d="M70.2,264.1c0,0,0.1,0,0.1,0"/>
	<path class="st0" d="M61.5,264.1c-3.3-1.2-6.9-2.6-10.6-4c0.3-0.5,0.4-0.7,0.5-0.8c3.6-3.7,7.1-7.4,10.7-11.1
		c4.2-4.3,8.4-8.6,12.6-13c6-6.2,12-12.5,18-18.7c6.1-6.3,12.1-12.7,18.2-19c6.1-6.4,12.2-12.8,18.4-19.1c6.1-6.3,12.2-12.6,18.2-19
		c2.8-2.9,5.6-5.9,8.6-9.1c14.3,13.8,28.5,27.4,42.8,41.2c-0.3,0.2-0.5,0.5-0.7,0.6c-7.6,4.3-15.1,8.6-22.7,12.9
		c-5.7,3.3-11.4,6.5-17.1,9.8c-4.4,2.5-8.7,5.1-13.1,7.6c-6.5,3.7-13,7.5-19.6,11.2c-5.6,3.2-11.2,6.4-16.8,9.6
		c-5.6,3.2-11.3,6.5-16.9,9.7c-3.6,2.1-7,4.3-10.7,6.2c-3.7,1.9-7.7,3.5-11.1,5"/>
	<path class="st0" d="M145.2,138.8c-0.2,0.3-0.3,0.5-0.5,0.6c-4.5,4.6-9,9.3-13.5,13.9c-7,7.2-13.9,14.4-20.9,21.7
		c-6,6.3-12.1,12.6-18.1,18.9c-6.2,6.4-12.3,12.8-18.5,19.3c-5.9,6.2-11.9,12.4-17.8,18.6c-4.7,4.9-9.3,9.8-13.9,14.7
		c-0.5,0.5-0.7,1.2-1.2,2.1c-2.7-4.4-3.6-8.4-4-12.5c-0.1-1.1-0.1-2.1-0.1-3.2c0-59.7,0-119.3,0-179c0-5.5,1.1-10.7,4-15.7
		c1.5,1.3,2.9,2.5,4.2,3.8c2.7,2.6,5.3,5.2,7.9,7.7c7.2,6.9,14.5,13.9,21.7,20.8c3.2,3,6.3,6.1,9.5,9.1c6.6,6.4,13.3,12.8,19.9,19.2
		c3.3,3.2,6.6,6.3,9.9,9.5c6.6,6.4,13.3,12.8,19.9,19.2c3.2,3,6.3,6.1,9.5,9.1C143.9,137.1,144.4,137.9,145.2,138.8z"/>
	<path class="st0" d="M190.3,91.7c-11.6,12.1-23.2,24.1-34.9,36.2c-4.8-4.6-9.4-9-14-13.4c-4.9-4.7-9.8-9.3-14.7-14
		c-3.3-3.2-6.6-6.3-9.9-9.5c-3.3-3.1-6.5-6.3-9.8-9.4c-3.3-3.2-6.6-6.3-9.9-9.5c-3.3-3.2-6.7-6.4-10-9.6c-6.6-6.3-13.2-12.7-19.8-19
		C62,38.3,56.7,33.1,51.1,27.6c1.9-0.8,3.6-1.6,5.3-2.2c7.5-2.4,15-2,21.9,1.7c8.8,4.7,17.5,9.8,26.2,14.8c2.7,1.5,5.3,3.2,8,4.8
		c8.2,4.7,16.3,9.3,24.5,13.9c5.6,3.2,11.2,6.4,16.8,9.6c5.6,3.2,11.2,6.4,16.8,9.6c5.4,3.1,10.7,6.2,16.1,9.3
		C187.9,89.9,189.1,90.9,190.3,91.7z"/>
	<path class="st0" d="M203.5,99c1.2,0.8,2.3,1.4,3.3,2c9.9,5.6,19.9,11.2,29.8,16.9c14.4,8.4,18.1,25.2,11.8,38
		c-1.9,3.8-4.5,6.9-7.8,9.5c-2,1.5-4,2.9-6.2,4.2c-6.9,4-13.9,7.9-20.9,11.9c-1.1,0.7-1.8,0.6-2.7-0.3c-4.9-4.7-9.9-9.4-14.9-14.1
		c-3.2-3-6.3-6.1-9.5-9.1c-6.5-6.3-13-12.5-19.5-18.7c-0.8-0.8-0.7-1.3-0.1-2c0.2-0.2,0.4-0.4,0.5-0.5c5.4-5.5,10.8-11,16.2-16.6
		c6.4-6.6,12.7-13.2,19-19.8C202.9,99.9,203.2,99.4,203.5,99z"/>
</g>
</svg>
