<?xml version="1.0" encoding="utf-8"?>
<!-- Generator: Adobe Illustrator 24.2.1, SVG Export Plug-In . SVG Version: 6.00 Build 0)  -->
<svg version="1.1" id="SvgjsSvg1071" xmlns:svgjs="http://svgjs.com/svgjs"
	 xmlns="http://www.w3.org/2000/svg" xmlns:xlink="http://www.w3.org/1999/xlink" x="0px" y="0px" viewBox="0 0 288 288"
	 style="enable-background:new 0 0 288 288;" xml:space="preserve">
<style type="text/css">
	.st0{fill:#8C8C8C;}
</style>
<g id="SvgjsG1073">
	<path class="st0" d="M144,114.2c-16.4,0-29.8,13.3-29.8,29.8s13.3,29.8,29.8,29.8s29.8-13.3,29.8-29.8c0,0,0,0,0,0
		C173.8,127.6,160.4,114.2,144,114.2z M263.2,84.8c-0.1-9.3-1.8-18.4-5-27.1c-4.9-12.8-15-23-27.8-27.8c-8.7-3.3-17.9-5-27.1-5
		C187.7,24,183.1,24,144,24s-43.7,0-59.2,0.8c-9.3,0.1-18.4,1.8-27.1,5c-12.8,4.9-23,15-27.8,27.8c-3.3,8.7-5,17.9-5,27.1
		C24,100.3,24,104.9,24,144s0,43.7,0.8,59.2c0.1,9.3,1.8,18.5,5,27.2c2.4,6.3,6.1,12,10.9,16.8c4.8,4.8,10.6,8.6,16.9,10.9
		c8.7,3.3,17.9,5,27.1,5c15.5,0.8,20,0.8,59.2,0.8s43.7,0,59.2-0.8c9.3-0.1,18.4-1.8,27.1-5c6.4-2.4,12.1-6.1,16.9-10.9
		c4.8-4.8,8.5-10.5,10.9-16.8c3.3-8.7,5-17.9,5-27.2c0.8-15.5,0.8-20,0.8-59.2S264,100.3,263.2,84.8z M232.7,180.8
		c-0.4,7.4-2,14.7-4.7,21.6c-4.7,11.6-13.9,20.9-25.6,25.6c-7,2.6-14.3,4-21.7,4.2c-9.5,0-12,0-36.7,0s-27.2,0-36.7,0
		c-7.4-0.2-14.8-1.6-21.7-4.2c-6-2.2-11.3-5.7-15.7-10.3c-4.3-4.3-7.7-9.5-9.8-15.2c-2.6-7-4-14.3-4.1-21.7c0-9.5,0-12,0-36.7
		s0-27.2,0-36.7c0.1-7.4,1.5-14.8,4.1-21.7c2.2-6,5.7-11.3,10.3-15.7c4.3-4.3,9.5-7.7,15.2-9.8c7-2.6,14.3-4,21.7-4.2l0,0
		c9.5,0,12,0,36.7,0s27.2,0,36.7,0c7.4,0.2,14.8,1.6,21.7,4.2c6,2.2,11.3,5.7,15.7,10.3c4.3,4.3,7.7,9.5,9.8,15.2
		c2.6,7,4,14.3,4.2,21.7c0,9.5,0,12,0,36.7s0.8,27.2,0.5,36.7V180.8z M213.5,91.6c-2.9-7.8-9.1-14-16.9-16.9
		c-5.3-1.8-10.9-2.7-16.6-2.6c-9.4,0-12,0-36,0s-26.6,0-36,0c-5.7,0.1-11.3,1.1-16.6,3.1c-7.7,2.8-13.9,8.7-16.9,16.3
		c-1.7,5.3-2.6,10.9-2.5,16.6c0,9.4,0,12,0,36s0,26.6,0,36c0.1,5.7,1.2,11.3,3.1,16.6c2.9,7.8,9.1,14,16.9,16.9
		c5.1,1.9,10.5,2.9,16,3.1l0,0c9.4,0,12,0,36,0s26.6,0,36,0c5.7-0.1,11.3-1.1,16.6-3.1c7.8-2.9,14-9.1,16.9-16.9
		c2-5.3,3.1-10.9,3.1-16.6c0-9.4,0-12,0-36s0-26.6,0-36c0-5.7-1.1-11.3-3.1-16.6L213.5,91.6z M144,189.8
		c-25.3,0-45.7-20.5-45.7-45.7c0,0,0-0.1,0-0.1l0,0c0-25.3,20.5-45.8,45.8-45.8c25.3,0,45.8,20.5,45.8,45.8s-20.5,45.8-45.8,45.8
		C144.1,189.8,144,189.8,144,189.8z M192,107.2c-5.9-0.6-10.2-5.9-9.6-11.9c0.5-5.1,4.5-9.1,9.6-9.6l0,0c5.9,0.6,10.2,5.9,9.6,11.9
		C201.1,102.6,197.1,106.6,192,107.2z"/>
</g>
</svg>
