<?xml version="1.0" encoding="utf-8"?>
<!-- Generator: Adobe Illustrator 24.2.1, SVG Export Plug-In . SVG Version: 6.00 Build 0)  -->
<svg version="1.1" id="Layer_1" xmlns="http://www.w3.org/2000/svg" xmlns:xlink="http://www.w3.org/1999/xlink" x="0px" y="0px"
	 viewBox="0 0 98 98" style="enable-background:new 0 0 98 98;" xml:space="preserve">
<style type="text/css">
	.st0{stroke:#000000;stroke-width:5;stroke-miterlimit:10;}
</style>
<g>
	<path class="st0" d="M68.2,12.4c-7.4,0-14.4,3.2-19.2,8.9c-4.7-5.7-11.8-8.9-19.2-8.9C16,12.4,4.7,23.6,4.7,37.5l0,0
		c0,23.8,41.5,46.9,43.1,47.8c0.7,0.5,1.6,0.5,2.2,0c1.7-0.9,43.1-23.8,43.1-47.8C93.3,23.6,82,12.4,68.2,12.4
		C68.2,12.4,68.2,12.4,68.2,12.4z M49,80.8C42.5,77,9.2,56.7,9.2,37.5c0-11.4,9.2-20.6,20.6-20.6l0,0c7-0.1,13.5,3.4,17.3,9.3
		c0.8,1.1,2.2,1.3,3.3,0.5c0.2-0.1,0.4-0.3,0.5-0.5c6.2-9.5,19-12.2,28.5-6c5.8,3.8,9.3,10.3,9.3,17.3C88.8,57,55.5,77.1,49,80.8z"
		/>
</g>
</svg>
