<?xml version="1.0" encoding="utf-8"?>
<!-- Generator: Adobe Illustrator 24.2.1, SVG Export Plug-In . SVG Version: 6.00 Build 0)  -->
<svg version="1.1" id="Layer_1" xmlns="http://www.w3.org/2000/svg" xmlns:xlink="http://www.w3.org/1999/xlink" x="0px" y="0px"
	 viewBox="0 0 92.8 49.3" style="enable-background:new 0 0 92.8 49.3;" xml:space="preserve">
<style type="text/css">
	.st0{fill:#3B5CFF;}
	.st1{fill:#FFFFFF;}
	.st2{fill:url(#SVGID_1_);}
	.st3{fill:url(#SVGID_2_);}
	.st4{fill:url(#SVGID_3_);}
	.st5{fill:url(#SVGID_4_);}
	.st6{fill:url(#SVGID_5_);}
	.st7{fill:url(#SVGID_6_);}
	.st8{fill:url(#SVGID_7_);}
	.st9{fill:none;stroke:#F9FFEE;stroke-miterlimit:10;}
	.st10{fill:none;stroke:#3B5CFF;stroke-miterlimit:10;}
</style>
<g>
	<g id="XMLID_1_">
		<g>
			<path class="st0" d="M84.3,14.2c1.7,0,3.1,1.5,3.1,3.7c0,2.6-1.6,3.9-3.3,3.9c-1,0-1.8-0.4-2.2-1.1h0v3.9h-1.3v-7.8
				c0-0.9,0-1.7-0.1-2.4h1.2l0.1,1.2h0C82.3,14.7,83.1,14.2,84.3,14.2z M86.1,17.9c0-1.5-0.8-2.7-2.1-2.7c-0.9,0-1.7,0.6-2,1.6
				c0,0.2-0.1,0.4-0.1,0.5v1.2c0,0.2,0,0.4,0.1,0.5c0.2,0.9,1,1.5,2,1.5C85.3,20.7,86.1,19.6,86.1,17.9z"/>
			<path class="st0" d="M75.4,14.2c2.1,0,3.5,1.5,3.5,3.7c0,2.7-1.9,3.8-3.6,3.8c-2,0-3.5-1.4-3.5-3.7
				C71.8,15.6,73.4,14.2,75.4,14.2z M77.5,17.9c0-1.2-0.6-2.8-2.2-2.8c-1.6,0-2.2,1.4-2.2,2.8c0,1.6,0.9,2.8,2.2,2.8
				C76.6,20.7,77.5,19.6,77.5,17.9z"/>
			<path class="st0" d="M70.2,17.3v4.3h-1.3v-4.2c0-1.2-0.4-2.1-1.7-2.1c-0.9,0-1.5,0.6-1.8,1.3c-0.1,0.2-0.1,0.4-0.1,0.6v4.4H64
				V10.9h1.3v4.5h0c0.2-0.4,0.5-0.7,0.9-0.9c0.4-0.2,0.9-0.4,1.3-0.4C68.6,14.2,70.2,14.8,70.2,17.3z"/>
			<path class="st0" d="M62.1,14.6l-0.3,1c-0.3-0.2-0.8-0.4-1.5-0.4c-0.8,0-1.2,0.4-1.2,1c0,0.6,0.4,0.9,1.4,1.2
				c1.3,0.5,1.9,1.1,1.9,2.2c0,1.3-1,2.2-2.7,2.2c-0.8,0-1.5-0.2-2-0.5l0.3-1c0.4,0.2,1.1,0.5,1.7,0.5c1,0,1.4-0.5,1.4-1.1
				c0-0.6-0.4-1-1.3-1.3c-1.3-0.5-1.9-1.2-1.9-2c0-1.2,0.9-2.1,2.5-2.1C61.1,14.2,61.7,14.4,62.1,14.6z"/>
			<polygon class="st1" points="56.6,17 56.6,18 54.8,18 54.9,17 			"/>
			<linearGradient id="SVGID_1_" gradientUnits="userSpaceOnUse" x1="7.553" y1="18.7516" x2="55.8468" y2="18.7516">
				<stop  offset="0" style="stop-color:#1CB5E0"/>
				<stop  offset="0.1096" style="stop-color:#1BACD8"/>
				<stop  offset="0.292" style="stop-color:#1792C2"/>
				<stop  offset="0.5246" style="stop-color:#10699F"/>
				<stop  offset="0.7955" style="stop-color:#07306F"/>
				<stop  offset="1" style="stop-color:#000046"/>
			</linearGradient>
			<path class="st2" d="M50.8,4.5c3.2-0.7,5.3,1.2,5,4.5c-0.2,1.8-0.3,3.6-0.5,5.4L54.9,17h-2v1h1.9l-0.6,4.2
				c-0.7,1.8-2.4,3.2-4.5,3.6c-3.4,0.7-6.8,1.5-10.2,2.1c-3.5,0.9-7.1,1.7-10.6,2.3c0.4,0.9,1.7,1.4,3.1,1.1
				c2.2-0.5,4.4-0.9,6.6-1.4c0.2-0.1,0.4-0.1,0.6-0.1l0.5,2.3c-0.1,0-0.1,0.1-0.2,0.1c0,0,0,0,0.1,0c0,0,0,0.1,0.1,0.1c0,0,0,0,0,0
				c0,0,0,0,0,0l0.1,0.4c-0.2,0.1-0.4,0.1-0.6,0c-0.1,0-0.2,0.1-0.2,0.1c-2.1,0.5-4.2,1-6.3,1.4c-3,0.7-5.6-0.6-7.1-3.3
				c-0.4-0.7-0.7-1.8-1.4-2.2c-0.7-0.4-1.7,0.2-2.5,0.3c-1.2,0.2-2.1-0.3-2.2-1.3c-0.2-1.2,0.2-1.9,1.5-2.2c2.3-0.5,4.6-1,6.9-1.4
				c1.4-0.2,2.7-0.6,4.2-0.9c1.1-0.2,1.6-1.1,1.3-2.1c-0.2-1-1.1-1.5-2.2-1.2c-5.1,1-10.1,2.1-15.1,3.2c-1.7,0.3-2.6,0-2.8-1.2
				c-0.2-1.2,0.4-2,2.2-2.2c2.2-0.4,4.3-0.9,6.5-1.3c1.1-0.2,1.7-1,1.5-2.1c-0.2-1.1-1-1.7-2.2-1.4c-1.1,0.2-2.2,0.4-3.2,0.7
				c-0.7,0.2-0.9,0-1.2-0.6c-0.9-1.8-1.9-3.6-2.8-5.3c-0.2-0.5-0.7-0.9-1.2-1.2C11.4,7.5,10.1,7,8.7,6.3c-1-0.4-1.3-1.2-1-2
				C8,3.5,8.8,3.1,9.8,3.5c1.8,0.8,3.7,1.7,5.6,2.5C15.7,6.2,16,6.6,16.2,7c0.7,1.3,1.5,2.7,2.2,4.2c0.1,0.2,0.2,0.7,0.6,0.4
				c1.7-1,3.6-1.1,5.4-1.5c2.7-0.7,5.4-1.2,8.1-1.7C33.4,8.2,34.2,8,35,7.9c3.3-0.7,6.6-1.4,10-2.2C46.9,5.3,48.8,4.9,50.8,4.5z
				 M51.9,21.6v-1.1h-4.4v-3.6h3.9v-1.1h-3.9v-3.2h4.1v-1.1h-5.4v10.1H51.9z M29.8,16.2c0.9-0.2,1.4-1.1,1.2-2.1
				c-0.2-0.9-1.1-1.5-2-1.3c-0.7,0.1-1.5,0.2-2.2,0.5c-0.8,0.2-1.3,0.7-1.2,1.6c0.1,1.2,0.9,2,2.1,1.8C28.3,16.5,29,16.4,29.8,16.2z
				"/>
			<polygon class="st1" points="54.9,17 54.8,18 52.9,18 52.9,17 			"/>
			<linearGradient id="SVGID_2_" gradientUnits="userSpaceOnUse" x1="7.553" y1="35.8084" x2="55.8468" y2="35.8084">
				<stop  offset="0" style="stop-color:#1CB5E0"/>
				<stop  offset="0.1096" style="stop-color:#1BACD8"/>
				<stop  offset="0.292" style="stop-color:#1792C2"/>
				<stop  offset="0.5246" style="stop-color:#10699F"/>
				<stop  offset="0.7955" style="stop-color:#07306F"/>
				<stop  offset="1" style="stop-color:#000046"/>
			</linearGradient>
			<path class="st3" d="M53.7,30.1c0.4,2.1-0.8,3.9-3,4.4c-0.6,0.1-1.2,0.2-2,0.4c2.2,1.7,2.7,3.3,1.6,4.9c-0.9,1.3-2.7,1.7-4.1,0.9
				c-1.7-1-1.8-2.6-0.6-5.2c-2.7,0.5-5.2,1.2-7.8,1.6c-0.1,0-0.2,0.1-0.3,0.1c-0.2-0.3-0.3-0.2-0.4,0.1c-0.7,0.2-1.2,0.3-1.9,0.5
				c-0.2,0.1-0.4,0.1-0.5,0.3c0,0.3,0.2,0.4,0.4,0.5c1.5,1.2,1.7,3.2,0.6,4.6c-0.8,1-2,1.3-3.2,1c-1.2-0.3-2-1.2-2.2-2.4
				c-0.5-3.9,1.3-6.6,5.1-7.1c0.2-0.1,0.6-0.2,0.9-0.2c0.2,0.2,0.3,0.2,0.4,0.1c0.1,0,0.2-0.1,0.2-0.3c0,0-0.1,0-0.1,0v0
				c4.2-0.9,8.3-1.8,12.5-2.7c0.2,0,0.3-0.1,0.5-0.1c0.4-0.1,0.7-0.2,0.7-0.7c-0.1-0.6-0.5-0.5-0.9-0.4c-0.9,0.2-1.9,0.4-2.9,0.6
				c-2.1,0.5-4.2,0.9-6.4,1.3c-0.2,0.1-0.3,0.2-0.5,0.2l-0.1-0.4c0,0,0.1-0.1,0.1-0.1c-0.1,0-0.2-0.1-0.2-0.1l-0.5-2.3
				c3.4-0.8,6.7-1.5,10.1-2.2C51.4,27,53.4,28.2,53.7,30.1z"/>
			<polygon class="st1" points="51.9,20.5 51.9,21.6 46.2,21.6 46.2,11.5 51.7,11.5 51.7,12.6 47.5,12.6 47.5,15.8 51.4,15.8 
				51.4,16.8 47.5,16.8 47.5,20.5 			"/>
			<linearGradient id="SVGID_3_" gradientUnits="userSpaceOnUse" x1="39.6359" y1="32.0257" x2="39.9274" y2="32.0257">
				<stop  offset="0" style="stop-color:#1CB5E0"/>
				<stop  offset="0.1096" style="stop-color:#1BACD8"/>
				<stop  offset="0.292" style="stop-color:#1792C2"/>
				<stop  offset="0.5246" style="stop-color:#10699F"/>
				<stop  offset="0.7955" style="stop-color:#07306F"/>
				<stop  offset="1" style="stop-color:#000046"/>
			</linearGradient>
			<path class="st4" d="M40,32c-0.1,0-0.1,0-0.1,0.1c0,0,0,0,0,0c0,0,0,0,0,0c0,0-0.1,0-0.1-0.1c0,0,0,0-0.1,0
				c0.1,0,0.1-0.1,0.2-0.1C39.8,31.9,39.9,32,40,32z"/>
			<linearGradient id="SVGID_4_" gradientUnits="userSpaceOnUse" x1="37.1658" y1="37.1881" x2="37.5868" y2="37.1881">
				<stop  offset="0" style="stop-color:#1CB5E0"/>
				<stop  offset="0.1096" style="stop-color:#1BACD8"/>
				<stop  offset="0.292" style="stop-color:#1792C2"/>
				<stop  offset="0.5246" style="stop-color:#10699F"/>
				<stop  offset="0.7955" style="stop-color:#07306F"/>
				<stop  offset="1" style="stop-color:#000046"/>
			</linearGradient>
			<path class="st5" d="M37.1,37.3c0.1-0.3,0.2-0.4,0.4-0.1C37.5,37.3,37.3,37.3,37.1,37.3z"/>
			<linearGradient id="SVGID_5_" gradientUnits="userSpaceOnUse" x1="36.5826" y1="34.4926" x2="37.1415" y2="34.4926">
				<stop  offset="0" style="stop-color:#1CB5E0"/>
				<stop  offset="0.1096" style="stop-color:#1BACD8"/>
				<stop  offset="0.292" style="stop-color:#1792C2"/>
				<stop  offset="0.5246" style="stop-color:#10699F"/>
				<stop  offset="0.7955" style="stop-color:#07306F"/>
				<stop  offset="1" style="stop-color:#000046"/>
			</linearGradient>
			<path class="st6" d="M37.1,34.4C37.1,34.4,37.1,34.4,37.1,34.4c0.1,0.2,0,0.3-0.1,0.3C37,34.6,37,34.5,37.1,34.4z"/>
			<linearGradient id="SVGID_6_" gradientUnits="userSpaceOnUse" x1="36.5826" y1="34.5002" x2="37.1415" y2="34.5002">
				<stop  offset="0" style="stop-color:#1CB5E0"/>
				<stop  offset="0.1096" style="stop-color:#1BACD8"/>
				<stop  offset="0.292" style="stop-color:#1792C2"/>
				<stop  offset="0.5246" style="stop-color:#10699F"/>
				<stop  offset="0.7955" style="stop-color:#07306F"/>
				<stop  offset="1" style="stop-color:#000046"/>
			</linearGradient>
			<path class="st7" d="M37.1,34.4c0,0.2-0.1,0.2-0.1,0.3c-0.1,0-0.2,0-0.4-0.1C36.8,34.4,36.9,34.4,37.1,34.4z"/>
			<linearGradient id="SVGID_7_" gradientUnits="userSpaceOnUse" x1="10.4989" y1="28.5913" x2="17.6772" y2="28.5913">
				<stop  offset="0" style="stop-color:#1CB5E0"/>
				<stop  offset="0.1096" style="stop-color:#1BACD8"/>
				<stop  offset="0.292" style="stop-color:#1792C2"/>
				<stop  offset="0.5246" style="stop-color:#10699F"/>
				<stop  offset="0.7955" style="stop-color:#07306F"/>
				<stop  offset="1" style="stop-color:#000046"/>
			</linearGradient>
			<path class="st8" d="M17.6,27.9c0.2,0.8-0.2,1.7-1,1.9c-1.4,0.4-2.9,0.7-4.3,0.9c-0.9,0.2-1.6-0.5-1.7-1.3
				c-0.2-0.9,0.2-1.7,0.9-2c1.5-0.4,3-0.7,4.1-0.9C16.8,26.5,17.5,27,17.6,27.9z"/>
		</g>
		<g>
			<polygon class="st9" points="51.9,21.6 46.2,21.6 46.2,11.5 51.7,11.5 51.7,12.6 47.5,12.6 47.5,15.8 51.4,15.8 51.4,16.8 
				47.5,16.8 47.5,20.5 51.9,20.5 			"/>
			<polygon class="st10" points="54.9,17 56.6,17 56.6,18 54.8,18 52.9,18 52.9,17 			"/>
			<path class="st10" d="M57.9,20.2c0.4,0.2,1.1,0.5,1.7,0.5c1,0,1.4-0.5,1.4-1.1c0-0.6-0.4-1-1.3-1.3c-1.3-0.5-1.9-1.2-1.9-2
				c0-1.2,0.9-2.1,2.5-2.1c0.7,0,1.4,0.2,1.8,0.4l-0.3,1c-0.3-0.2-0.8-0.4-1.5-0.4c-0.8,0-1.2,0.4-1.2,1c0,0.6,0.4,0.9,1.4,1.2
				c1.3,0.5,1.9,1.1,1.9,2.2c0,1.3-1,2.2-2.7,2.2c-0.8,0-1.5-0.2-2-0.5L57.9,20.2z"/>
			<path class="st10" d="M64,10.9h1.3v4.5h0c0.2-0.4,0.5-0.7,0.9-0.9c0.4-0.2,0.9-0.4,1.3-0.4c1,0,2.5,0.6,2.5,3.1v4.3h-1.3v-4.2
				c0-1.2-0.4-2.1-1.7-2.1c-0.9,0-1.5,0.6-1.8,1.3c-0.1,0.2-0.1,0.4-0.1,0.6v4.4H64V10.9z"/>
			<path class="st10" d="M78.9,17.9c0,2.7-1.9,3.8-3.6,3.8c-2,0-3.5-1.4-3.5-3.7c0-2.4,1.6-3.8,3.6-3.8
				C77.5,14.2,78.9,15.7,78.9,17.9z"/>
			<path class="st10" d="M73.1,18c0,1.6,0.9,2.8,2.2,2.8c1.3,0,2.2-1.2,2.2-2.8c0-1.2-0.6-2.8-2.2-2.8C73.8,15.1,73.1,16.6,73.1,18z
				"/>
			<path class="st10" d="M80.5,16.7c0-0.9,0-1.7-0.1-2.4h1.2l0.1,1.2h0c0.5-0.9,1.4-1.4,2.6-1.4c1.7,0,3.1,1.5,3.1,3.7
				c0,2.6-1.6,3.9-3.3,3.9c-1,0-1.8-0.4-2.2-1.1h0v3.9h-1.3V16.7z"/>
			<path class="st10" d="M81.8,18.6c0,0.2,0,0.4,0.1,0.5c0.2,0.9,1,1.5,2,1.5c1.4,0,2.2-1.1,2.2-2.8c0-1.5-0.8-2.7-2.1-2.7
				c-0.9,0-1.7,0.6-2,1.6c0,0.2-0.1,0.4-0.1,0.5V18.6z"/>
		</g>
	</g>
</g>
</svg>
