<?xml version="1.0" encoding="utf-8"?>
<!-- Generator: Adobe Illustrator 24.2.1, SVG Export Plug-In . SVG Version: 6.00 Build 0)  -->
<svg version="1.1" xmlns="http://www.w3.org/2000/svg" xmlns:xlink="http://www.w3.org/1999/xlink" x="0px" y="0px"
	 viewBox="0 0 92.8 49.3" style="enable-background:new 0 0 92.8 49.3;" xml:space="preserve">
<style type="text/css">
	.st0{fill:#0167F3;}
	.st1{fill:#494949;}
</style>
<g id="Layer_1">
	<g>
		<g id="XMLID_2_">
			<g>
				<path class="st0" d="M60.9,23.8c0,0.6-0.4,1.2-1,1.3c-1.1,0.1-2.2,0.1-3.3,0.1c-0.7,0-1.1-0.6-1.1-1.2c0-0.7,0.4-1.2,0.9-1.4
					c1.2-0.1,2.3-0.1,3.2-0.1C60.5,22.7,60.9,23.1,60.9,23.8z"/>
			</g>
		</g>
		<path class="st0" d="M88.5,10.7c-1.5,0-3,0.1-4.5,0.1c-2.6,0.2-5.2,0.3-7.7,0.4c-0.6,0-1.2,0-1.9,0.1c-2.1,0-4.1,0.1-6.2,0.2
			c-1.4,0.1-2.8-0.1-4.2,0.4c-0.3,0.2-0.3-0.2-0.4-0.4c-0.3-1.2-0.7-2.3-1.1-3.4c-0.1-0.3-0.3-0.7-0.5-0.8c-1.3-0.8-2.6-1.7-3.8-2.6
			c-0.7-0.4-1.3-0.2-1.7,0.3S56.3,6.2,57,6.7c0.9,0.7,1.9,1.2,2.8,2.2c0.3,0.3,0.7,0.6,0.7,1c0.5,1.4,1,2.8,1.4,4.3
			c0.1,0.5,0.3,0.7,0.8,0.6c0.8-0.1,1.6-0.1,2.5-0.1c0.9-0.1,1.4,0.5,1.5,1.3c0,0.8-0.5,1.4-1.4,1.4c-1.7,0-3.3,0.1-5,0.1
			c-1.4-0.1-1.9,0.4-1.9,1.4c0,0.9,0.6,1.3,1.9,1.2c3.9-0.2,7.7-0.4,11.6-0.4c0.9-0.1,1.5,0.4,1.5,1.2c0.1,0.8-0.4,1.4-1.2,1.4
			c-1.2,0-2.2,0.2-3.2,0.1c-1.8,0-3.5,0.1-5.3,0.2c-1,0.1-1.4,0.5-1.4,1.4c-0.1,0.8,0.6,1.2,1.5,1.2c0.6,0,1.4-0.3,1.9,0.1
			c0.5,0.4,0.6,1.2,0.8,1.8c0.8,2.2,2.5,3.5,4.8,3.4c1.1,0,2.3-0.1,3.4-0.1l0.1,0l4.2-0.3c1.1,0,2.1-0.1,3.1-0.1
			c0.8,0,1.5,0,2.2-0.1c0.3,0,0.6,0,0.6,0.4c-0.1,0.4-0.3,0.4-0.6,0.4c-0.1,0-0.2,0-0.4,0c-2.5,0.1-6.9,0.3-8.7,0.4l-2.4,0.1
			c-2.6,0.1-4.2,1.8-4.3,4.6c0,0.9,0.5,1.7,1.3,2.1c0.9,0.4,1.8,0.3,2.5-0.3c1-0.9,1.1-2.4,0.1-3.5c-0.1-0.1-0.3-0.2-0.2-0.4
			c0.1-0.1,0.2-0.1,0.4-0.2c0.1,0,0.2,0,0.3,0l2.4-0.2c1.8,0,3.5-0.2,5.3-0.2c-1.2,1.8-1.4,3-0.2,3.9c0.9,0.8,2.3,0.7,3.2-0.1
			c1-1,0.9-2.3-0.6-3.8c0.6,0,1.1,0,1.5,0c1.7-0.1,2.8-1.3,2.8-2.9c0-1.4-1.3-2.6-3-2.6c-1.9,0.1-3.7,0.1-5.6,0.2l-4.2,0.3
			c-1.1,0-2.3,0.1-3.4,0.1c-1.1,0-2-0.5-2.2-1.2c2.7,0,5.4-0.1,8.2-0.4c2.6,0,5.2-0.2,7.8-0.3c1.6,0,3.1-0.9,3.8-2.1l1-3l0.2-0.7
			l0.6-1.9c0.4-1.3,0.7-2.6,1.1-3.9C92.3,12.3,91,10.6,88.5,10.7z M71.4,16.7c-0.6,0-1.2,0-1.6,0.1c-0.9,0-1.4-0.7-1.3-1.6
			c0-0.7,0.5-1,1.1-1c0.6-0.1,1.2-0.1,1.7-0.1c0.7,0,1.3,0.5,1.3,1.2C72.6,16.1,72.1,16.7,71.4,16.7z"/>
	</g>
</g>
<g id="Layer_2">
	<g>
		<path class="st1" d="M11.2,15.5c-0.2-0.2-0.5-0.3-1-0.3c-1.2,0-1.8,0.7-2.1,1.8c-0.1,0.5-0.3,1-0.4,1.5h0.9c0.5,0,1-0.2,1.6-0.6
			c-0.3,0.8-0.4,2.3-2.3,2.3c-0.1,0-0.2,0-0.3,0H7.3c-0.5,2.5-1,4.5-1.4,6.1c-0.1,0.5-0.1,1,0.1,1.5H3.1c0.3-0.3,0.5-0.7,0.6-1.2
			l1.5-6.3h-1c0.1-0.5,0.2-1.1,0.4-1.7h1l0.5-2.2c0.4-1.5,1.6-2.6,3.3-2.6C10.7,13.8,10.9,14,11.2,15.5z"/>
		<path class="st1" d="M11.1,26.5c-0.1,0.4-0.1,0.9,0.1,1.3H8.3c0.3-0.4,0.5-0.8,0.6-1.3l2.3-9.9c0.1-0.6,0.1-1.1-0.1-1.5l2.7-0.9
			L11.1,26.5z"/>
		<path class="st1" d="M15.2,26.5c-0.1,0.5-0.1,1,0.1,1.4h-3c0.3-0.3,0.5-0.6,0.6-1c0.5-2.1,1-4.2,1.5-6.3c0.2-0.8,0.2-1.4,0-1.8
			l2.8-0.9L15.2,26.5z M17.7,15.8c0,0.8-0.5,1.5-1.3,1.5c-0.8,0-1.2-0.4-1.2-1.2s0.6-1.5,1.4-1.5C17.3,14.5,17.7,15,17.7,15.8z"/>
		<path class="st1" d="M25.9,22c0,3.2-2.1,6-4.4,6c-1,0-2-0.5-2-1.4c0-0.4,0.3-0.9,0.8-1.5c0.2,0.6,0.6,1,1,1c1.3,0,2.3-2.2,2.3-4.3
			c0-1.4-0.6-2.2-1.7-2.2c-0.4,0-0.8,0.1-1.2,0.3l-2.2,9.6c-0.2,0.8-0.2,1.4,0,1.8h-2.9c0.4-0.6,0.6-1.2,0.8-2l2.5-10.7
			c0.9-0.6,1.8-0.9,3-0.9C24.4,17.8,25.9,19.5,25.9,22z"/>
		<path class="st1" d="M29.1,25.9h3.7c0.6,0,1.2-0.2,1.8-0.6c-0.6,1.9-0.8,2.5-2.1,2.5h-6.7l0.4-1.9l6.1-5.9h-3
			c-0.7,0-1.2,0.1-1.5,0.3l0.4-2.1h7.3l-0.4,1.8L29.1,25.9z"/>
		<path class="st1" d="M45.5,21.8c0,3.3-2.2,6.2-5.4,6.2c-2.1,0-4-1.1-4-4.3c0-3.1,2.2-5.9,5.4-5.9C44.1,17.8,45.5,19.5,45.5,21.8z
			 M38.4,24.1c0,1.2,0.6,2.1,1.8,2.1c2,0,3-2.6,3-4.6c0-1.4-0.6-2.1-1.8-2.1C39.7,19.5,38.4,21.6,38.4,24.1z"/>
		<path class="st1" d="M55.1,19.8c0,0.2,0,0.4-0.1,0.6c-0.3,1.1-0.8,3.2-1.4,6.1c-0.1,0.5-0.1,1,0,1.4h-2.9c0.3-0.3,0.4-0.7,0.6-1.2
			c0.4-1.8,0.9-3.7,1.4-5.7c0-0.2,0.1-0.3,0.1-0.5c0-0.5-0.3-0.8-0.8-0.8c-1.4,0-2.5,1.1-2.8,2.6l-1,4.2c-0.1,0.4-0.1,0.9,0,1.4
			h-2.8c0.3-0.4,0.5-0.9,0.6-1.4l1.5-6.2c0.1-0.5,0.1-1-0.1-1.6l2.5-0.8l-0.3,1.4c1-1,2.1-1.5,3.2-1.5
			C54.2,17.8,55.1,18.6,55.1,19.8z"/>
	</g>
</g>
</svg>
