<?xml version="1.0" encoding="utf-8"?>
<!-- Generator: Adobe Illustrator 24.2.1, SVG Export Plug-In . SVG Version: 6.00 Build 0)  -->
<svg version="1.1" id="SvgjsSvg1156" xmlns:svgjs="http://svgjs.com/svgjs"
	 xmlns="http://www.w3.org/2000/svg" xmlns:xlink="http://www.w3.org/1999/xlink" x="0px" y="0px" viewBox="0 0 288 288"
	 style="enable-background:new 0 0 288 288;" xml:space="preserve">
<style type="text/css">
	.st0{fill:#F4C01E;}
</style>
<g id="SvgjsG1158">
	<path class="st0" d="M263,121.5c1-6.6-3.6-12.7-10.1-13.6L185.1,98l-30.3-61.8c-1.1-1.9-2.7-3.4-4.5-4.5c-6-3.4-13.6-1.4-17,4.5
		L102.9,98l-67.8,9.9c-2.6,0.4-5,1.6-6.8,3.5c-4.6,4.7-4.6,12.3,0.2,17l49.1,48.2l-11.6,68c-0.1,0.7-0.2,1.3-0.2,2
		c0,6.6,5.4,12,12,12.1c2,0,3.9-0.5,5.6-1.4l60.6-32l60.6,32c2.3,1.2,5,1.7,7.6,1.2c6.5-1.1,10.9-7.3,9.8-13.8l-11.6-68l49.1-48.2
		C261.4,126.5,262.6,124.1,263,121.5z M199.8,170.1c-1.4,1.4-2,3.4-1.7,5.3l12.1,71.1L146.8,213c-1.8-0.9-3.8-0.9-5.6,0l-63.4,33.5
		l12.1-71.1c0.3-1.9-0.3-3.9-1.7-5.3l-51.4-50.3l70.9-10.4c2-0.3,3.6-1.5,4.5-3.3L144,41.5l31.7,64.6c0.9,1.8,2.6,3,4.5,3.3l71,10.4
		L199.8,170.1z"/>
</g>
</svg>
