<?xml version="1.0" encoding="utf-8"?>
<!-- Generator: Adobe Illustrator 24.2.1, SVG Export Plug-In . SVG Version: 6.00 Build 0)  -->
<svg version="1.1" id="SvgjsSvg1218" xmlns:svgjs="http://svgjs.com/svgjs"
	 xmlns="http://www.w3.org/2000/svg" xmlns:xlink="http://www.w3.org/1999/xlink" x="0px" y="0px" viewBox="0 0 288 288"
	 style="enable-background:new 0 0 288 288;" xml:space="preserve">
<style type="text/css">
	.st0{fill:#0167F3;}
</style>
<g id="SvgjsG1220">
	<g>
		<path class="st0" d="M112.5,252h-18c-2.5,0-4.5,2-4.5,4.5c0,2.5,2,4.5,4.5,4.5h18c2.5,0,4.5-2,4.5-4.5C117,254,115,252,112.5,252z
			"/>
		<circle class="st0" cx="130.5" cy="256.5" r="4.5"/>
		<circle class="st0" cx="144" cy="27" r="4.5"/>
		<path class="st0" d="M216,49.5v-22C216,17.3,207.7,9,197.5,9l0,0h-107C80.3,9,72,17.3,72,27.5l0,0v69.3H22.4
			c-7.4,0-13.4,6-13.4,13.4v67.8c0,7.4,6,13.4,13.4,13.4c0,0,0,0,0,0H72v69.3c0,10.2,8.3,18.5,18.5,18.5l0,0h107
			c10.2,0,18.5-8.3,18.5-18.5l0,0V126c2.5,0,4.5-2,4.5-4.5V108c0-2.5-2-4.5-4.5-4.5v-18c2.5,0,4.5-2,4.5-4.5V54
			C220.5,51.5,218.5,49.5,216,49.5z M18,112.5h121.5v9H18V112.5z M72,168.8c0,2.5-2,4.5-4.5,4.5h-36c-2.5,0-4.5-2-4.5-4.5V153
			c0-2.5,2-4.5,4.5-4.5h36c2.5,0,4.5,2,4.5,4.5V168.8z M18,139.5v-9h121.5v9H18z M139.5,164.3v9H126c-2.5,0-4.5-2-4.5-4.5
			s2-4.5,4.5-4.5H139.5z M207,260.5c0,5.2-4.3,9.5-9.5,9.5h-107c-5.2,0-9.5-4.3-9.5-9.5v-69.3h58.5v11.3c0,2.5,2,4.5,4.5,4.5
			s4.5-2,4.5-4.5v-117c0-2.5-2-4.5-4.5-4.5s-4.5,2-4.5,4.5v11.3H81V27.5c0-5.2,4.3-9.5,9.5-9.5h107c5.2,0,9.5,4.3,9.5,9.5V260.5z"/>
		<rect x="36" y="157.5" class="st0" width="27" height="6.8"/>
	</g>
</g>
</svg>
