<?xml version="1.0" encoding="utf-8"?>
<!-- Generator: Adobe Illustrator 24.2.1, SVG Export Plug-In . SVG Version: 6.00 Build 0)  -->
<svg version="1.1" id="SvgjsSvg1011" xmlns:svgjs="http://svgjs.com/svgjs"
	 xmlns="http://www.w3.org/2000/svg" xmlns:xlink="http://www.w3.org/1999/xlink" x="0px" y="0px" viewBox="0 0 288 288"
	 style="enable-background:new 0 0 288 288;" xml:space="preserve">
<style type="text/css">
	.st0{fill:#F9F9F9;}
</style>
<g id="SvgjsG1013">
	<path class="st0" d="M185.8,175c12.5-15.1,20.4-34.5,20.4-55.8c0-48-39.1-87.1-87.1-87.1S32,71.2,32,119.2s39.1,87.1,87.1,87.1
		c21,0,40.7-7.6,55.8-20.4l67.7,67.7c1.6,1.6,3.6,2.3,5.6,2.3c2,0,3.9-0.7,5.6-2.3c3-3,3-8.2,0-11.2L185.8,175z M118.7,190.5
		c-39.4,0-71.3-31.9-71.3-71.3s31.9-71.3,71.3-71.3S190,79.8,190,119.2S158.2,190.5,118.7,190.5L118.7,190.5z"/>
</g>
</svg>
