<?xml version="1.0" encoding="utf-8"?>
<!-- Generator: Adobe Illustrator 24.2.1, SVG Export Plug-In . SVG Version: 6.00 Build 0)  -->
<svg version="1.1" id="SvgjsSvg1192" xmlns:svgjs="http://svgjs.com/svgjs"
	 xmlns="http://www.w3.org/2000/svg" xmlns:xlink="http://www.w3.org/1999/xlink" x="0px" y="0px" viewBox="0 0 288 288"
	 style="enable-background:new 0 0 288 288;" xml:space="preserve">
<style type="text/css">
	.st0{fill:#0167F3;}
</style>
<g id="SvgjsG1194">
	<path class="st0" d="M239.2,136.3c-5.7,0-10.3-4.6-10.3-10.3V97c0-41.1-38-74.1-84.8-74.1S59.4,56.3,59.4,97v29
		c0,5.7-4.6,10.3-10.3,10.3s-10.3-4.6-10.3-10.3V97c0-52.3,47.3-95,105.3-95s105.3,42.6,105.3,95v29c0,5.6-4.5,10.2-10.1,10.3
		C239.3,136.3,239.3,136.3,239.2,136.3z"/>
	<path class="st0" d="M211.4,233.1c-5.7,0-10.3-4.6-10.3-10.3v-97.7c0.2-5.6,4.7-10,10.3-10c35.5,0,64.3,26.6,64.3,59.2
		S246.9,233.1,211.4,233.1z M221.7,136.5v75c18.6-3.1,32.5-18.7,33.4-37.4C254.2,155.2,240.3,139.6,221.7,136.5z M76.6,233.1
		c-35.5,0-64.3-26.5-64.3-59.1s28.9-58.8,64.3-58.8c5.7,0,10.3,4.6,10.3,10.3v97.3C86.9,228.5,82.3,233.1,76.6,233.1z M66.3,136.5
		c-18.6,3.1-32.5,18.7-33.4,37.5c0.9,18.8,14.9,34.4,33.4,37.4V136.5z"/>
	<path class="st0" d="M208,266.6H174c-5.7,0-10.3-4.6-10.3-10.3S168.3,246,174,246H208c11.1,0,20.1-9,20.1-20.1l0,0v-4.5
		c0-5.7,4.6-10.3,10.3-10.3c5.7,0,10.3,4.6,10.3,10.3v4.5C248.7,248.4,230.5,266.6,208,266.6z"/>
	<path class="st0" d="M156.3,285.9H136c-15.5,0-28.1-12.6-28.1-28.1v-1.2c0-15.5,12.6-28.1,28.1-28.1h20.3
		c15.5,0,28.1,12.6,28.1,28.1v1.2C184.4,273.3,171.9,285.9,156.3,285.9z M136.2,249.2c-4.1,0-7.5,3.3-7.6,7.5v1.2
		c0,4.2,3.4,7.6,7.6,7.6l0,0h20.2c4.1,0,7.5-3.4,7.5-7.6v-1.2c0-4.1-3.4-7.5-7.5-7.5H136.2z"/>
</g>
</svg>
