<?xml version="1.0" encoding="utf-8"?>
<!-- Generator: Adobe Illustrator 24.2.1, SVG Export Plug-In . SVG Version: 6.00 Build 0)  -->
<svg version="1.1" id="SvgjsSvg1056" xmlns:svgjs="http://svgjs.com/svgjs"
	 xmlns="http://www.w3.org/2000/svg" xmlns:xlink="http://www.w3.org/1999/xlink" x="0px" y="0px" viewBox="0 0 288 288"
	 style="enable-background:new 0 0 288 288;" xml:space="preserve">
<style type="text/css">
	.st0{fill:#8C8C8C;}
</style>
<g id="SvgjsG1058">
	<path class="st0" d="M264,69.6c-9,3.9-18.6,6.5-28.3,7.7c10.3-6.2,18-15.8,21.7-27.2c-9.7,5.8-20.3,9.8-31.3,12
		c-18.4-20-49.5-21.2-69.5-2.8c-13.1,12.1-18.7,30.3-14.5,47.7c-39.6-2-76.4-20.7-101.4-51.5c-4.3,7.6-6.6,16.1-6.6,24.8
		c0,16.4,8.2,31.8,21.8,40.9c-7.8-0.2-15.5-2.3-22.3-6.1v0.6c0.1,23.4,16.7,43.4,39.6,48c-4.3,1.3-8.7,2-13.2,2
		c-3.1,0-6.2-0.3-9.2-0.8c6.5,20,24.9,33.7,46,34.1C79.4,212.6,58,220,36,220.1c-4,0-8-0.2-12-0.7c22.5,14.5,48.7,22.2,75.5,22.2
		c76.8,0.8,139.7-60.8,140.5-137.6c0-0.8,0-1.7,0-2.5c0-2,0-4.2,0-6.4C249.4,88,257.5,79.4,264,69.6z"/>
</g>
</svg>
