<?xml version="1.0" encoding="utf-8"?>
<!-- Generator: Adobe Illustrator 24.2.1, SVG Export Plug-In . SVG Version: 6.00 Build 0)  -->
<svg version="1.1" id="SvgjsSvg1011" xmlns:svgjs="http://svgjs.com/svgjs"
	 xmlns="http://www.w3.org/2000/svg" xmlns:xlink="http://www.w3.org/1999/xlink" x="0px" y="0px" viewBox="0 0 240 240"
	 style="enable-background:new 0 0 240 240;" xml:space="preserve">
<style type="text/css">
	.st0{fill-rule:evenodd;clip-rule:evenodd;fill:#F9F9F9;}
</style>
<g id="SvgjsG1013">
	<path class="st0" d="M120,240c66.3,0,120-53.7,120-120C240,53.7,186.3,0,120,0C53.7,0,0,53.7,0,120C0,186.3,53.7,240,120,240z
		 M156,96c0,19.9-16.1,36-36,36s-36-16.1-36-36c0-19.9,16.1-36,36-36S156,76.1,156,96z M48,180c16.4-21.9,42.6-36,72-36
		c29.4,0,55.6,14.1,72,36c-16.4,21.9-42.6,36-72,36C90.6,216,64.4,201.9,48,180z"/>
</g>
</svg>
